# xmcd CD database file
#
# Track frame offsets:
#	182
#	17202
#	33992
#	50242
#	63615
#	88252
#	102137
#	119475
#	133945
#	152995
#	173632
#	187665
#	202867
#	218807
#	240305
#	258780
#	270642
#	296725
#	311475
#	326232
#
# Disc length: 4594 seconds
#
# Revision: 3
# Processed by: cddbd v1.5.1PL0 Copyright (c) Steve Scherf et al.
# Submitted via: CDex 1.51
#
DISCID=2611f014
DTITLE=Various Artist - Italo Dance
DYEAR=1900
DGENRE=Dance
TTITLE0=Sabrina - Boys Boys Boys
TTITLE1=Baltimora - Tarzan Boy
TTITLE2=Valerie Dore - Get Closer
TTITLE3=Scotch - Take Me Up
TTITLE4=Stargo - Live Is Life
TTITLE5=P.Lion - Happy Children
TTITLE6=Ryan Paris - Dolce Vita
TTITLE7=Gary Low - You Are A Danger
TTITLE8=Pino D'Angio - Ma Quale Idea
TTITLE9=Koto - Jabdah
TTITLE10=Finzi Contini - Cha Cha Cha
TTITLE11=Moon Ray - Commanchero
TTITLE12=Steve Allen - Letter From My Heart
TTITLE13=Ken Lazlo - Hey Hey Guy
TTITLE14=Spagna - Call Me
TTITLE15=Topo and Roby - Under The Ice
TTITLE16=Off - Electrica Salsa
TTITLE17=Righeira - No Tengo Dinero
TTITLE18=Fun Fun - Happy Station
TTITLE19=Local Boy - Medley - Thriller and Owner Of A Lonely Heart
EXTD=
EXTT0=
EXTT1=
EXTT2=
EXTT3=
EXTT4=
EXTT5=
EXTT6=
EXTT7=
EXTT8=
EXTT9=
EXTT10=
EXTT11=
EXTT12=
EXTT13=
EXTT14=
EXTT15=
EXTT16=
EXTT17=
EXTT18=
EXTT19=
PLAYORDER=
